<svg width="231" height="36" viewBox="0 0 231 36" fill="none" xmlns="http://www.w3.org/2000/svg">
<path d="M10.0312 11.5938V14.7812H0.1875V11.5938H10.0312ZM2.625 7.42188H7.125V23.4062C7.125 23.8958 7.1875 24.2708 7.3125 24.5312C7.44792 24.7917 7.64583 24.974 7.90625 25.0781C8.16667 25.1719 8.49479 25.2188 8.89062 25.2188C9.17188 25.2188 9.42188 25.2083 9.64062 25.1875C9.86979 25.1562 10.0625 25.125 10.2188 25.0938L10.2344 28.4062C9.84896 28.5312 9.43229 28.6302 8.98438 28.7031C8.53646 28.776 8.04167 28.8125 7.5 28.8125C6.51042 28.8125 5.64583 28.651 4.90625 28.3281C4.17708 27.9948 3.61458 27.4635 3.21875 26.7344C2.82292 26.0052 2.625 25.0469 2.625 23.8594V7.42188ZM17.0938 15.2812V28.5H12.5938V11.5938H16.8281L17.0938 15.2812ZM22.1875 11.4844L22.1094 15.6562C21.8906 15.625 21.625 15.599 21.3125 15.5781C21.0104 15.5469 20.7344 15.5312 20.4844 15.5312C19.849 15.5312 19.2969 15.6146 18.8281 15.7812C18.3698 15.9375 17.9844 16.1719 17.6719 16.4844C17.3698 16.7969 17.1406 17.1771 16.9844 17.625C16.8385 18.0729 16.7552 18.5833 16.7344 19.1562L15.8281 18.875C15.8281 17.7812 15.9375 16.776 16.1562 15.8594C16.375 14.9323 16.6927 14.125 17.1094 13.4375C17.5365 12.75 18.0573 12.2188 18.6719 11.8438C19.2865 11.4688 19.9896 11.2812 20.7812 11.2812C21.0312 11.2812 21.2865 11.3021 21.5469 11.3438C21.8073 11.375 22.0208 11.4219 22.1875 11.4844ZM32.9062 24.6875V17.1562C32.9062 16.6146 32.8177 16.151 32.6406 15.7656C32.4635 15.3698 32.1875 15.0625 31.8125 14.8438C31.4479 14.625 30.974 14.5156 30.3906 14.5156C29.8906 14.5156 29.4583 14.6042 29.0938 14.7812C28.7292 14.9479 28.4479 15.1927 28.25 15.5156C28.0521 15.8281 27.9531 16.1979 27.9531 16.625H23.4531C23.4531 15.9062 23.6198 15.224 23.9531 14.5781C24.2865 13.9323 24.7708 13.3646 25.4062 12.875C26.0417 12.375 26.7969 11.9844 27.6719 11.7031C28.5573 11.4219 29.5469 11.2812 30.6406 11.2812C31.9531 11.2812 33.1198 11.5 34.1406 11.9375C35.1615 12.375 35.9635 13.0312 36.5469 13.9062C37.1406 14.7812 37.4375 15.875 37.4375 17.1875V24.4219C37.4375 25.349 37.4948 26.1094 37.6094 26.7031C37.724 27.2865 37.8906 27.7969 38.1094 28.2344V28.5H33.5625C33.3438 28.0417 33.1771 27.4688 33.0625 26.7812C32.9583 26.0833 32.9062 25.3854 32.9062 24.6875ZM33.5 18.2031L33.5312 20.75H31.0156C30.4219 20.75 29.9062 20.8177 29.4688 20.9531C29.0312 21.0885 28.6719 21.2812 28.3906 21.5312C28.1094 21.7708 27.901 22.0521 27.7656 22.375C27.6406 22.6979 27.5781 23.0521 27.5781 23.4375C27.5781 23.8229 27.6667 24.1719 27.8438 24.4844C28.0208 24.7865 28.276 25.026 28.6094 25.2031C28.9427 25.3698 29.3333 25.4531 29.7812 25.4531C30.4583 25.4531 31.0469 25.3177 31.5469 25.0469C32.0469 24.776 32.4323 24.4427 32.7031 24.0469C32.9844 23.651 33.1302 23.276 33.1406 22.9219L34.3281 24.8281C34.1615 25.2552 33.9323 25.6979 33.6406 26.1562C33.3594 26.6146 33 27.0469 32.5625 27.4531C32.125 27.849 31.599 28.1771 30.9844 28.4375C30.3698 28.6875 29.6406 28.8125 28.7969 28.8125C27.724 28.8125 26.75 28.599 25.875 28.1719C25.0104 27.7344 24.3229 27.1354 23.8125 26.375C23.3125 25.6042 23.0625 24.7292 23.0625 23.75C23.0625 22.8646 23.2292 22.0781 23.5625 21.3906C23.8958 20.7031 24.3854 20.125 25.0312 19.6562C25.6875 19.1771 26.5052 18.8177 27.4844 18.5781C28.4635 18.3281 29.599 18.2031 30.8906 18.2031H33.5ZM45.4062 4.48438V28.5H40.9062V4.48438H45.4062ZM56.0625 11.5938L48.7188 19.9688L44.7812 23.9531L43.1406 20.7031L46.2656 16.7344L50.6562 11.5938H56.0625ZM51.3906 28.5L46.3906 20.6875L49.5 17.9688L56.5781 28.5H51.3906ZM57.2812 20.2188V19.8906C57.2812 18.651 57.4583 17.5104 57.8125 16.4688C58.1667 15.4167 58.6823 14.5052 59.3594 13.7344C60.0365 12.9635 60.8698 12.3646 61.8594 11.9375C62.849 11.5 63.9844 11.2812 65.2656 11.2812C66.5469 11.2812 67.6875 11.5 68.6875 11.9375C69.6875 12.3646 70.526 12.9635 71.2031 13.7344C71.8906 14.5052 72.4115 15.4167 72.7656 16.4688C73.1198 17.5104 73.2969 18.651 73.2969 19.8906V20.2188C73.2969 21.4479 73.1198 22.5885 72.7656 23.6406C72.4115 24.6823 71.8906 25.5938 71.2031 26.375C70.526 27.1458 69.6927 27.7448 68.7031 28.1719C67.7135 28.599 66.5781 28.8125 65.2969 28.8125C64.0156 28.8125 62.875 28.599 61.875 28.1719C60.8854 27.7448 60.0469 27.1458 59.3594 26.375C58.6823 25.5938 58.1667 24.6823 57.8125 23.6406C57.4583 22.5885 57.2812 21.4479 57.2812 20.2188ZM61.7812 19.8906V20.2188C61.7812 20.9271 61.8438 21.5885 61.9688 22.2031C62.0938 22.8177 62.2917 23.3594 62.5625 23.8281C62.8438 24.2865 63.2083 24.6458 63.6562 24.9062C64.1042 25.1667 64.651 25.2969 65.2969 25.2969C65.9219 25.2969 66.4583 25.1667 66.9062 24.9062C67.3542 24.6458 67.7135 24.2865 67.9844 23.8281C68.2552 23.3594 68.4531 22.8177 68.5781 22.2031C68.7135 21.5885 68.7812 20.9271 68.7812 20.2188V19.8906C68.7812 19.2031 68.7135 18.5573 68.5781 17.9531C68.4531 17.3385 68.25 16.7969 67.9688 16.3281C67.6979 15.849 67.3385 15.474 66.8906 15.2031C66.4427 14.9323 65.901 14.7969 65.2656 14.7969C64.6302 14.7969 64.0885 14.9323 63.6406 15.2031C63.2031 15.474 62.8438 15.849 62.5625 16.3281C62.2917 16.7969 62.0938 17.3385 61.9688 17.9531C61.8438 18.5573 61.7812 19.2031 61.7812 19.8906ZM80.5625 15.2812V28.5H76.0625V11.5938H80.2969L80.5625 15.2812ZM85.6562 11.4844L85.5781 15.6562C85.3594 15.625 85.0938 15.599 84.7812 15.5781C84.4792 15.5469 84.2031 15.5312 83.9531 15.5312C83.3177 15.5312 82.7656 15.6146 82.2969 15.7812C81.8385 15.9375 81.4531 16.1719 81.1406 16.4844C80.8385 16.7969 80.6094 17.1771 80.4531 17.625C80.3073 18.0729 80.224 18.5833 80.2031 19.1562L79.2969 18.875C79.2969 17.7812 79.4062 16.776 79.625 15.8594C79.8438 14.9323 80.1615 14.125 80.5781 13.4375C81.0052 12.75 81.526 12.2188 82.1406 11.8438C82.7552 11.4688 83.4583 11.2812 84.25 11.2812C84.5 11.2812 84.7552 11.3021 85.0156 11.3438C85.276 11.375 85.4896 11.4219 85.6562 11.4844Z" fill="white"/>
</svg>
